<svg xmlns="http://www.w3.org/2000/svg" xml:space="preserve" viewBox="0 0 512 512">
  <circle cx="256" cy="256" r="232.7" style="opacity:.2;fill:#e05d44"/>
  <path d="M256 512C114.8 512 0 397.2 0 256S114.8 0 256 0s256 114.8 256 256-114.8 256-256 256m0-465.4c-115.5 0-209.5 94-209.5 209.5s94 209.5 209.5 209.5 209.5-94 209.5-209.5c0-115.6-94-209.5-209.5-209.5" style="fill:#e05d44"/>
  <g style="fill:#e05d44">
    <!-- Left Ear -->
    <circle cx="156" cy="250" r="45"/>
    <circle cx="156" cy="250" r="25" style="fill:#1e2327; opacity:0.3;"/>
    
    <!-- Right Ear -->
    <circle cx="356" cy="250" r="45"/>
    <circle cx="356" cy="250" r="25" style="fill:#1e2327; opacity:0.3;"/>
    
    <!-- Head -->
    <circle cx="256" cy="270" r="90"/>
    
    <!-- Eyes -->
    <circle cx="216" cy="250" r="14" style="fill:#1e2327;"/>
    <circle cx="296" cy="250" r="14" style="fill:#1e2327;"/>
    
    <!-- Eye highlights -->
    <circle cx="221" cy="245" r="5" style="fill:#ffffff;"/>
    <circle cx="301" cy="245" r="5" style="fill:#ffffff;"/>
    
    <!-- Snout/Cheeks -->
    <ellipse cx="256" cy="305" rx="50" ry="30" style="fill:#1e2327; opacity:0.4;"/>
    <path d="M256,290 L248,300 L264,300 Z" style="fill:#1e2327;"/>
    
    <!-- Small tuft of hair on top -->
    <path d="M256,180 Q270,150 256,140 Q242,150 256,180" style="fill:#e05d44;"/>
  </g>
</svg>
